<?xml version="1.0" standalone="no"?>
<!DOCTYPE svg PUBLIC "-//W3C//DTD SVG 20010904//EN"
 "http://www.w3.org/TR/2001/REC-SVG-20010904/DTD/svg10.dtd">
<svg version="1.0" xmlns="http://www.w3.org/2000/svg"
 width="260.000000pt" height="260.000000pt" viewBox="0 0 260.000000 260.000000"
 preserveAspectRatio="xMidYMid meet">
<metadata>
Created by potrace 1.11, written by Peter Selinger 2001-2013
</metadata>
<g transform="translate(0.000000,260.000000) scale(0.100000,-0.100000)"
fill="#000000" stroke="none">
<path d="M140 1335 l0 -417 218 4 c202 3 221 5 270 27 127 57 185 192 130 301
-18 36 -34 50 -75 70 -51 24 -66 40 -40 40 27 0 96 71 107 108 31 113 -18 210
-128 253 -51 20 -80 23 -269 27 l-213 4 0 -417z m384 254 c42 -20 57 -88 31
-138 -19 -37 -60 -51 -151 -51 l-74 0 0 100 0 100 85 0 c46 0 95 -5 109 -11z
m43 -353 c21 -25 24 -37 20 -74 -8 -76 -55 -101 -189 -102 l-68 0 0 106 0 106
106 -4 c103 -3 106 -4 131 -32z"/>
<path d="M1136 1742 c-6 -10 -316 -812 -316 -818 0 -2 37 -4 83 -4 55 0 90 5
102 14 11 8 31 49 45 92 l27 79 158 0 157 0 28 -80 c16 -43 37 -85 46 -92 11
-8 49 -13 102 -13 76 0 84 2 79 18 -9 29 -298 776 -308 795 -8 14 -24 17 -104
17 -51 0 -96 -4 -99 -8z m158 -339 l55 -163 -109 0 c-61 0 -110 3 -110 7 0 10
104 323 106 320 1 -1 27 -75 58 -164z"/>
<path d="M1720 1335 l0 -415 184 0 c101 0 207 5 236 10 129 24 234 103 290
217 29 58 34 80 38 163 3 79 1 106 -18 159 -51 153 -160 245 -320 270 -36 6
-143 11 -237 11 l-173 0 0 -415z m401 254 c120 -41 183 -189 145 -340 -20 -77
-57 -126 -116 -156 -37 -19 -60 -23 -142 -23 l-98 0 0 258 c0 142 3 262 7 265
11 11 168 8 204 -4z"/>
</g>
</svg>
